<?xml version="1.0" standalone="no"?><!DOCTYPE svg PUBLIC "-//W3C//DTD SVG 1.1//EN" "http://www.w3.org/Graphics/SVG/1.1/DTD/svg11.dtd"><svg t="1596018458121" class="icon" viewBox="0 0 1024 1024" version="1.1" xmlns="http://www.w3.org/2000/svg" p-id="34791" xmlns:xlink="http://www.w3.org/1999/xlink" width="200" height="200"><defs><style type="text/css"></style></defs><path d="M344.644411 0c-54.533011 0-206.568682 0-249.53424 0S0.089028 61.146639 0.089028 95.021144s0 255.321036 0 296.630884 31.398104 78.908164 78.908164 78.908164 293.739021-2.891863 316.875974-2.891863c23.13593 0 56.18565-21.48022 56.18565-46.270836 0-24.790616 0-262.750239 0-313.983087S399.178445 0 344.644411 0zM413.226393 392.299781c0 21.13332-27.392884 39.441291-46.568618 39.441291-19.175735 0-223.254713 2.465145-262.632559 2.465145s-65.401546-32.04995-65.401546-67.261916 0-223.977167 0-252.850775 43.143613-80.996732 78.755692-80.996732 161.620981 0 206.819392 0 89.027639 47.89073 89.027639 91.562369S413.226393 371.167484 413.226393 392.299781z" p-id="34792"></path><path d="M570.973136 107.415428c0 51.231825 0 289.191448 0 313.983087 0 24.790616 33.050744 46.270836 56.18565 46.270836s269.363867 2.891863 316.875974 2.891863 78.908164-37.598316 78.908164-78.908164 0-262.756379 0-296.630884-52.055586-95.021144-95.021144-95.021144-195.000206 0-249.53424 0C623.855554 0 570.973136 56.183604 570.973136 107.415428zM609.806583 124.658138c0-43.669592 43.829228-91.562369 89.028663-91.562369 45.199435 0 171.208337 0 206.819392 0 35.610032 0 78.755692 52.123125 78.755692 80.996732s0 217.637786 0 252.850775-26.0237 67.261916-65.401546 67.261916-243.457848-2.465145-262.632559-2.465145c-19.174712 0-46.568618-18.308995-46.568618-39.441291C609.806583 371.167484 609.806583 168.32773 609.806583 124.658138z" p-id="34793"></path><path d="M453.28269 915.5101c0-51.201126 0-289.017486 0-313.793776 0-24.77629-33.031301-46.243207-56.151881-46.243207s-269.201162-2.889817-316.683593-2.889817-78.861092 37.575804-78.861092 78.861092 0 262.59879 0 296.451806c0 33.854039 52.023864 94.963839 94.963839 94.963839s194.882526 0 249.38279 0S453.28269 966.711226 453.28269 915.5101zM414.473803 898.278647c0 43.644009-43.802622 91.506087-88.975451 91.506087s-171.104983 0-206.695572 0-78.707596-52.090379-78.707596-80.947614c0-28.856211 0-217.505779 0-252.698303s26.007327-67.222007 65.361637-67.222007 243.310491 2.464121 262.47497 2.464121c19.163455 0 46.539966 18.298761 46.539966 39.417755C414.472779 651.91768 414.473803 854.634638 414.473803 898.278647z" p-id="34794"></path><path d="M679.480432 1022.860037c54.501288 0 206.442816 0 249.38279 0 42.939975 0 94.963839-61.110823 94.963839-94.963839 0-33.854039 0-255.16754 0-296.451806 0-41.284265-31.378661-78.861092-78.861092-78.861092s-293.561989 2.889817-316.683593 2.889817c-23.122627 0-56.151881 21.466917-56.151881 46.243207 0 24.77629 0 262.59265 0 313.793776S624.980167 1022.860037 679.480432 1022.860037zM610.939383 630.798686c0-21.118993 27.376511-39.417755 46.539966-39.417755s223.12066-2.464121 262.47497-2.464121 65.361637 32.029484 65.361637 67.222007c0 35.192523 0 223.840044 0 252.698303 0 28.858258-43.119053 80.947614-78.707596 80.947614-35.589566 0-161.522744 0-206.694549 0-45.171806 0-88.975451-47.862078-88.975451-91.506087C610.939383 854.634638 610.939383 651.918703 610.939383 630.798686z" p-id="34795"></path></svg>