<?xml version="1.0" standalone="no"?><!DOCTYPE svg PUBLIC "-//W3C//DTD SVG 1.1//EN" "http://www.w3.org/Graphics/SVG/1.1/DTD/svg11.dtd"><svg t="1596018445310" class="icon" viewBox="0 0 1024 1024" version="1.1" xmlns="http://www.w3.org/2000/svg" p-id="34061" xmlns:xlink="http://www.w3.org/1999/xlink" width="200" height="200"><defs><style type="text/css"></style></defs><path d="M 960 0 H 640 c -35.3 0 -64 28.7 -64 64 v 320 c 0 35.4 28.7 64 64 64 h 320 c 35.3 0 64 -28.7 64 -64 V 64 c 0 -35.4 -28.7 -64 -64 -64 Z m 0 576 H 640 c -35.3 0 -64 28.7 -64 64 v 320 c 0 35.3 28.7 64 64 64 h 320 c 35.3 0 64 -28.7 64 -64 V 640 c 0 -35.4 -28.7 -64 -64 -64 Z M 384 0 H 64 C 28.7 0 0 28.7 0 64 v 320 c 0 35.4 28.7 64 64 64 h 320 c 35.3 0 64 -28.7 64 -64 V 64 c 0 -35.4 -28.7 -64 -64 -64 Z m 0 576 H 64 c -35.3 0 -64 28.7 -64 64 v 320 c 0 35.3 28.7 64 64 64 h 320 c 35.3 0 64 -28.7 64 -64 V 640 c 0 -35.4 -28.7 -64 -64 -64 Z" fill="#d81e06" p-id="34062"></path></svg>